# xmcd
#
# Track frame offsets: 
#        150
#        9312
#        29707
#        47590
#        60970
#        79782
#        97010
#        120540
#        138562
#        157025
#        177250
#        196575
#        217987
#
# Disc length: 3159 seconds
#
# Revision: 0
# Processed by: cddbd v1.5.1PL0 Copyright (c) Steve Scherf et al.
# Submitted via: ExactAudioCopy v0.95a5
#
DISCID=a60c550d
DTITLE=澎恰恰 - 台灣男人
DYEAR=2004
DGENRE=Country
TTITLE0=用心看台灣
TTITLE1=矇懂的年代
TTITLE2=田嬰
TTITLE3=故鄉的土味
TTITLE4=酸風柳樹
TTITLE5=兵單
TTITLE6=媽媽
TTITLE7=種瓠仔生菜瓜
TTITLE8=金紙心銀紙情
TTITLE9=緊大漢
TTITLE10=麥想彼呢多
TTITLE11=莎詠
TTITLE12=咱的台灣人
EXTD=
EXTT0=
EXTT1=
EXTT2=
EXTT3=
EXTT4=
EXTT5=
EXTT6=
EXTT7=
EXTT8=
EXTT9=
EXTT10=
EXTT11=
EXTT12=
PLAYORDER=
